<svg width="200" height="120" viewBox="0 0 200 120" fill="none" xmlns="http://www.w3.org/2000/svg">
  <!-- AWS Orange Background -->
  <rect width="200" height="120" rx="15" fill="#FF9900"/>
  
  <!-- AWS Logo Elements -->
  <path d="M40 70c-7.6 5.6-18.6 8.6-28 8.6-13.2 0-25.2-4.8-34.2-12.8-.8-.6-.08-1.6.8-1 10.2 6 22.8 9.6 35.8 9.6 8.8 0 18.4-1.8 27.2-5.6 1.4-.6 2.6.8 1.2 1.8z" fill="white"/>
  <path d="M44.8 66.4c-1-1.2-6.4-.6-8.8-.2-.8.1-1-.6-.2-1 4.4-3 11.6-2.2 12.4-1.2.8 1.2-.2 8.8-4.6 12.4-.6.6-1.2.2-1-.4 1-2.4 3.2-7.8 2.2-9.6z" fill="white"/>
  
  <!-- FCJ Text -->
  <text x="100" y="45" font-family="Arial, sans-serif" font-size="28" font-weight="bold" fill="white" text-anchor="middle">FCJ</text>
  <text x="100" y="65" font-family="Arial, sans-serif" font-size="12" fill="white" text-anchor="middle" opacity="0.9">First Cloud Journey</text>
  
  <!-- Face Recognition Icon -->
  <circle cx="160" cy="40" r="15" fill="white" opacity="0.2"/>
  <circle cx="160" cy="40" r="10" fill="none" stroke="white" stroke-width="2"/>
  <circle cx="157" cy="37" r="2" fill="white"/>
  <circle cx="163" cy="37" r="2" fill="white"/>
  <path d="M155 43 Q160 47 165 43" stroke="white" stroke-width="2" fill="none"/>
  
  <!-- Scan Lines -->
  <line x1="145" y1="30" x2="175" y2="30" stroke="white" stroke-width="1" opacity="0.6"/>
  <line x1="145" y1="50" x2="175" y2="50" stroke="white" stroke-width="1" opacity="0.6"/>
  
  <!-- AWS Text -->
  <text x="100" y="85" font-family="Arial, sans-serif" font-size="10" fill="white" text-anchor="middle" opacity="0.8">Powered by AWS</text>
  
  <!-- Cloud Icon -->
  <path d="M70 90c-2.2 0-4-1.8-4-4 0-1.5.8-2.8 2-3.5 0-3.3 2.7-6 6-6 2.5 0 4.6 1.5 5.5 3.7 1.2-.7 2.6-1.2 4.1-1.2 4.4 0 8 3.6 8 8s-3.6 8-8 8H70z" fill="white" opacity="0.3"/>
</svg>